<svg xmlns="http://www.w3.org/2000/svg" xmlns:xlink="http://www.w3.org/1999/xlink" viewBox="0,0,256,256" width="100px" height="100px"><g fill="#fffdfd" fill-rule="nonzero" stroke="none" stroke-width="1" stroke-linecap="butt" stroke-linejoin="miter" stroke-miterlimit="10" stroke-dasharray="" stroke-dashoffset="0" font-family="none" font-weight="none" font-size="none" text-anchor="none" style="mix-blend-mode: normal"><g transform="scale(5.12,5.12)"><path d="M30,43h17l-4,-4l-0.027,-28.496l3.891,-4.49h-12.019l-9.24,22.73l-10.108,-22.744h-12.497l4,5.091v24.195l-6,7.714h14l-6,-7.714v-21.536l13,29.25l-0.002,0.014l12.002,-29.469v25.455zM10.911,41h-5.822l2.911,-3.742zM21.922,37.899l-11.094,-24.961l-2.195,-4.938h5.564l9.581,21.556l0.805,1.81zM35.414,40.414l0.586,-0.586v-0.828v-25.455v-5.06l0.191,-0.47h6.293l-1.022,1.18l-0.489,0.565l0.001,0.747l0.026,28.495l0.001,0.827l0.585,0.585l0.586,0.586h-7.343z"></path></g></g></svg>